<?xml version="1.0" encoding="UTF-8" standalone="no" ?>
<!DOCTYPE svg PUBLIC "-//W3C//DTD SVG 1.1//EN" "http://www.w3.org/Graphics/SVG/1.1/DTD/svg11.dtd">
<svg xmlns="http://www.w3.org/2000/svg" xmlns:xlink="http://www.w3.org/1999/xlink" version="1.1" width="1080" height="1080" viewBox="0 0 1080 1080" xml:space="preserve">
<desc>Created with Fabric.js 5.2.4</desc>
<defs>
</defs>
<rect x="0" y="0" width="100%" height="100%" fill="transparent"></rect>
<g transform="matrix(1 0 0 1 540 540)" id="dfb5c40d-18a5-43e7-b3b8-f045876ca5a3"  >
<rect style="stroke: none; stroke-width: 1; stroke-dasharray: none; stroke-linecap: butt; stroke-dashoffset: 0; stroke-linejoin: miter; stroke-miterlimit: 4; fill: rgb(255,255,255); fill-rule: nonzero; opacity: 1; visibility: hidden;" vector-effect="non-scaling-stroke"  x="-540" y="-540" rx="0" ry="0" width="1080" height="1080" />
</g>
<g transform="matrix(1 0 0 1 540 540)" id="9c73cb4e-7342-4b9d-84a8-6b0b3a8e81f0"  >
</g>
<g transform="matrix(1 0 0 1 315.92 233.66)"  >
<rect style="stroke: none; stroke-width: 1; stroke-dasharray: none; stroke-linecap: butt; stroke-dashoffset: 0; stroke-linejoin: miter; stroke-miterlimit: 4; fill: rgb(255,255,255); fill-rule: nonzero; opacity: 1; visibility: hidden;" vector-effect="non-scaling-stroke"  x="-96" y="-96" rx="0" ry="0" width="192" height="192" />
</g>
<g transform="matrix(0.18 0 0 0.18 425.22 442.94)"  >
<rect style="stroke: none; stroke-width: 1; stroke-dasharray: none; stroke-linecap: butt; stroke-dashoffset: 0; stroke-linejoin: miter; stroke-miterlimit: 4; fill: rgb(255,255,255); fill-rule: nonzero; opacity: 1; visibility: hidden;" vector-effect="non-scaling-stroke"  x="-540" y="-540" rx="0" ry="0" width="1080" height="1080" />
</g>
<g transform="matrix(0.26 0 0 -0.26 540 540)"  >
<path style="stroke: rgb(255,255,255); stroke-width: 1; stroke-dasharray: none; stroke-linecap: butt; stroke-dashoffset: 0; stroke-linejoin: miter; stroke-miterlimit: 4; fill: rgb(255,255,255); fill-rule: nonzero; opacity: 1;" vector-effect="non-scaling-stroke"  transform=" translate(-3160.2, -2425.17)" d="M 2705 3743 C 2599 3706 2524 3660 2434 3577 C 2328 3479 2264 3362 2245 3237 C 2238 3195 2236 3192 2202 3186 C 2145 3177 2022 3179 1950 3190 C 1811 3212 1743 3280 1753 3386 C 1759 3449 1796 3524 1844 3569 C 1906 3629 1912 3696 1858 3734 C 1815 3764 1777 3755 1716 3699 C 1613 3605 1553 3462 1563 3335 C 1570 3244 1597 3182 1660 3116 C 1754 3017 1889 2977 2107 2982 L 2239 2985 L 2244 2955 C 2255 2900 2307 2805 2351 2762 C 2446 2668 2564 2637 2825 2636 C 3101 2635 3333 2682 3660 2803 C 4288 3035 4590 3185 4823 3377 C 4866 3413 4904 3439 4908 3436 C 4917 3426 4891 3205 4865 3074 C 4815 2826 4707 2567 4563 2353 C 4282 1932 3789 1545 3330 1385 C 2961 1257 2492 1253 2139 1376 C 1954 1440 1808 1528 1648 1672 C 1547 1763 1370 1977 1370 2008 C 1370 2013 1356 2027 1339 2039 C 1316 2056 1300 2060 1275 2056 C 1218 2045 1190 1990 1204 1916 C 1222 1819 1452 1557 1650 1409 C 2008 1139 2505 1030 3030 1106 C 3447 1166 3856 1366 4245 1700 C 4352 1792 4532 1977 4611 2075 C 4804 2314 4957 2612 5030 2891 C 5105 3176 5144 3592 5104 3676 C 5078 3731 5017 3753 4957 3731 C 4931 3721 4829 3645 4725 3557 C 4571 3428 4344 3296 4090 3187 C 4032 3163 3864 3096 3715 3040 C 3319 2890 3095 2837 2840 2837 C 2602 2836 2505 2865 2463 2950 C 2428 3017 2431 3022 2513 3048 C 2754 3123 2947 3274 3035 3455 C 3082 3551 3089 3615 3060 3674 C 3027 3743 2986 3764 2875 3767 C 2797 3770 2774 3767 2705 3743 z M 2860 3558 C 2860 3537 2799 3452 2752 3408 C 2679 3340 2482 3234 2463 3253 C 2451 3266 2505 3364 2551 3411 C 2610 3471 2699 3529 2770 3551 C 2835 3572 2860 3574 2860 3558 z" stroke-linecap="round" />
</g>
<g transform="matrix(0.26 0 0 -0.26 228.96 528.96)"  >
<path style="stroke: rgb(255,255,255); stroke-width: 1; stroke-dasharray: none; stroke-linecap: butt; stroke-dashoffset: 0; stroke-linejoin: miter; stroke-miterlimit: 4; fill: rgb(255,255,255); fill-rule: nonzero; opacity: 1;" vector-effect="non-scaling-stroke"  transform=" translate(-1998.2, -2457.63)" d="M 1900 2659 C 1809 2618 1767 2553 1766 2450 C 1765 2366 1799 2303 1868 2263 C 1907 2240 1926 2235 1980 2236 C 2247 2241 2328 2564 2087 2665 C 2036 2686 1954 2684 1900 2659 z" stroke-linecap="round" />
</g>
<g transform="matrix(0.26 0 0 -0.26 761.45 565.68)"  >
<path style="stroke: rgb(255,255,255); stroke-width: 1; stroke-dasharray: none; stroke-linecap: butt; stroke-dashoffset: 0; stroke-linejoin: miter; stroke-miterlimit: 4; fill: rgb(255,255,255); fill-rule: nonzero; opacity: 1;" vector-effect="non-scaling-stroke"  transform=" translate(-4012.15, -2318.65)" d="M 3973 2529 C 3921 2519 3882 2500 3848 2463 C 3716 2325 3821 2107 4020 2105 C 4074 2105 4093 2110 4133 2133 C 4159 2148 4193 2180 4208 2202 C 4231 2238 4235 2253 4235 2320 C 4235 2387 4232 2402 4207 2437 C 4158 2507 4064 2544 3973 2529 z" stroke-linecap="round" />
</g>
<g transform="matrix(0.61 0 0 -0.61 494.77 589.15)"  >
<path style="stroke: rgb(31,153,153); stroke-width: 1; stroke-dasharray: none; stroke-linecap: butt; stroke-dashoffset: 0; stroke-linejoin: miter; stroke-miterlimit: 4; fill: rgb(31,153,153); fill-rule: nonzero; opacity: 1;" vector-effect="non-scaling-stroke"  transform=" translate(-2943.49, -2280.78)" d="M 2890 2340 C 2847 2297 2859 2234 2915 2208 C 2972 2182 3040 2247 3019 2309 C 3013 2326 3000 2345 2990 2350 C 2960 2366 2911 2361 2890 2340 z" stroke-linecap="round" />
</g>
<g transform="matrix(0.26 0 0 -0.26 476.62 697.71)"  >
<path style="stroke: rgb(255,255,255); stroke-width: 0; stroke-dasharray: none; stroke-linecap: butt; stroke-dashoffset: 0; stroke-linejoin: miter; stroke-miterlimit: 4; fill: rgb(255,255,255); fill-rule: nonzero; opacity: 1;" vector-effect="non-scaling-stroke"  transform=" translate(-2946.31, -1814.99)" d="M 2605 1940 C 2594 1936 2575 1930 2563 1925 C 2534 1916 2506 1856 2514 1819 C 2521 1782 2557 1741 2598 1723 C 2637 1707 3192 1673 3261 1684 C 3312 1692 3376 1741 3366 1765 C 3363 1773 3365 1780 3370 1780 C 3376 1780 3380 1789 3380 1800 C 3380 1811 3376 1820 3372 1820 C 3368 1820 3360 1833 3354 1848 C 3347 1867 3328 1884 3299 1898 C 3261 1917 3220 1921 2985 1935 C 2693 1951 2636 1952 2605 1940 z" stroke-linecap="round" />
</g>
<g transform="matrix(NaN NaN NaN NaN 0 0)"  >
<g style=""   >
</g>
</g>
<g transform="matrix(NaN NaN NaN NaN 0 0)"  >
<g style=""   >
</g>
</g>
<g transform="matrix(NaN NaN NaN NaN 0 0)"  >
<g style=""   >
</g>
</g>
<g transform="matrix(NaN NaN NaN NaN 0 0)"  >
<g style=""   >
</g>
</g>
</svg>